<svg width="154" height="52" viewBox="0 0 154 52" fill="none" xmlns="http://www.w3.org/2000/svg">
<path d="M153.762 37.8874C153.762 45.3453 147.652 51.4553 140.194 51.4553H13.5679C6.11003 51.4553 0 45.3453 0 37.8874V13.7618C0 6.30391 6.11003 0.193848 13.5679 0.193848H140.194C147.652 0.193848 153.762 6.30391 153.762 13.7618V37.8874Z" fill="#404040"/>
<path d="M58.5246 19.0435L57.8746 17.4435H54.8546L54.2046 19.0435H53.4046L56.0746 12.5435H56.6546L59.3246 19.0435H58.5246ZM55.1346 16.7435H57.5846L56.3546 13.7135L55.1346 16.7435ZM60.9732 19.0435L59.1632 14.4435H59.9132L61.3332 18.0535L62.7632 14.4435H63.5132L61.6832 19.0435H60.9732ZM67.9833 14.4435H68.7133V19.0435H67.9833V18.2135C67.6333 18.7635 67.0533 19.1235 66.2733 19.1235C64.9633 19.1235 64.0333 18.1135 64.0333 16.7435C64.0333 15.3635 64.9633 14.3735 66.2733 14.3735C67.0533 14.3735 67.6333 14.7235 67.9833 15.2735V14.4435ZM66.3633 18.4335C67.3533 18.4335 67.9833 17.7235 67.9833 16.7435C67.9833 15.7635 67.3533 15.0635 66.3633 15.0635C65.3833 15.0635 64.7333 15.7635 64.7333 16.7435C64.7333 17.7235 65.3833 18.4335 66.3633 18.4335ZM70.4043 13.4635C70.1843 13.4635 69.9643 13.2835 69.9643 13.0135C69.9643 12.7435 70.1843 12.5835 70.4043 12.5835C70.6243 12.5835 70.8443 12.7435 70.8443 13.0135C70.8443 13.2835 70.6243 13.4635 70.4043 13.4635ZM70.7643 19.0435H70.0443V14.4435H70.7743L70.7643 19.0435ZM72.823 19.0435H72.103V12.5435H72.823V19.0435ZM77.8954 14.4435H78.6254V19.0435H77.8954V18.2135C77.5454 18.7635 76.9654 19.1235 76.1854 19.1235C74.8754 19.1235 73.9454 18.1135 73.9454 16.7435C73.9454 15.3635 74.8754 14.3735 76.1854 14.3735C76.9654 14.3735 77.5454 14.7235 77.8954 15.2735V14.4435ZM76.2754 18.4335C77.2654 18.4335 77.8954 17.7235 77.8954 16.7435C77.8954 15.7635 77.2654 15.0635 76.2754 15.0635C75.2954 15.0635 74.6454 15.7635 74.6454 16.7435C74.6454 17.7235 75.2954 18.4335 76.2754 18.4335ZM82.3064 14.3735C83.6164 14.3735 84.5564 15.3635 84.5564 16.7435C84.5564 18.1135 83.6164 19.1235 82.3064 19.1235C81.5264 19.1235 80.9464 18.7635 80.5964 18.2135V19.0435H79.8764V12.5435H80.5964V15.2735C80.9464 14.7235 81.5264 14.3735 82.3064 14.3735ZM82.2164 18.4335C83.1964 18.4335 83.8464 17.7235 83.8464 16.7435C83.8464 15.7635 83.1964 15.0635 82.2164 15.0635C81.2364 15.0635 80.5964 15.7635 80.5964 16.7435C80.5964 17.7235 81.2364 18.4335 82.2164 18.4335ZM86.3875 19.0435H85.6675V12.5435H86.3875V19.0435ZM89.7799 14.3635C91.0999 14.3635 91.9799 15.3735 91.9799 16.7435V16.9735H88.2099C88.2999 17.8935 88.9299 18.5035 89.8399 18.5035C90.5199 18.5035 90.9899 18.1935 91.2499 17.8035L91.7599 18.1735C91.3599 18.7635 90.6799 19.1335 89.8399 19.1335C88.4399 19.1335 87.5099 18.1135 87.5099 16.7435C87.5099 15.3735 88.3999 14.3635 89.7799 14.3635ZM89.7799 14.9635C88.8799 14.9635 88.3099 15.5735 88.2099 16.4735H91.3099C91.2099 15.6035 90.6399 14.9635 89.7799 14.9635ZM97.301 19.1335C95.921 19.1335 94.961 18.1135 94.961 16.7435C94.961 15.3635 95.921 14.3635 97.301 14.3635C98.681 14.3635 99.641 15.3635 99.641 16.7435C99.641 18.1135 98.681 19.1335 97.301 19.1335ZM97.301 18.4335C98.271 18.4335 98.911 17.7135 98.911 16.7435C98.911 15.7735 98.271 15.0635 97.301 15.0635C96.331 15.0635 95.681 15.7735 95.681 16.7435C95.681 17.7135 96.331 18.4335 97.301 18.4335ZM102.955 14.3735C103.875 14.3735 104.785 14.9135 104.785 16.2135V19.0435H104.065V16.3135C104.065 15.4335 103.445 15.0035 102.765 15.0035C102.075 15.0035 101.475 15.4335 101.475 16.3135V19.0435H100.755V14.4435H101.475V15.0635C101.825 14.5835 102.385 14.3735 102.955 14.3735ZM110.22 15.0135H109.12V17.8435C109.12 18.3335 109.42 18.4535 109.76 18.4535H110.17V19.0435H109.5C108.8 19.0435 108.39 18.6435 108.39 17.9435V15.0135H107.75V14.4435H108.39V13.0435H109.12V14.4435H110.22V15.0135ZM113.414 14.3735C114.334 14.3735 115.244 14.9135 115.244 16.2135V19.0435H114.524V16.3135C114.524 15.4335 113.904 15.0035 113.224 15.0035C112.534 15.0035 111.934 15.4335 111.934 16.3135V19.0435H111.214V12.5435H111.934V15.0635C112.284 14.5835 112.844 14.3735 113.414 14.3735ZM118.637 14.3635C119.957 14.3635 120.837 15.3735 120.837 16.7435V16.9735H117.067C117.157 17.8935 117.787 18.5035 118.697 18.5035C119.377 18.5035 119.847 18.1935 120.107 17.8035L120.617 18.1735C120.217 18.7635 119.537 19.1335 118.697 19.1335C117.297 19.1335 116.367 18.1135 116.367 16.7435C116.367 15.3735 117.257 14.3635 118.637 14.3635ZM118.637 14.9635C117.737 14.9635 117.167 15.5735 117.067 16.4735H120.167C120.067 15.6035 119.497 14.9635 118.637 14.9635Z" fill="white"/>
<path d="M60.4718 40.1943L59.3018 37.3143H53.8658L52.6958 40.1943H51.2558L56.0618 28.4943H57.1058L61.9118 40.1943H60.4718ZM54.3698 36.0543H58.7798L56.5658 30.6003L54.3698 36.0543ZM67.8417 31.7883C70.1997 31.7883 71.8917 33.6063 71.8917 36.0723C71.8917 38.5563 70.1997 40.3383 67.8417 40.3383C66.4377 40.3383 65.3937 39.7083 64.7637 38.7003V43.5063H63.4677V31.9143H64.7637V33.4263C65.3937 32.4183 66.4377 31.7883 67.8417 31.7883ZM67.6797 39.0963C69.4437 39.0963 70.6137 37.8363 70.6137 36.0723C70.6137 34.3083 69.4437 33.0303 67.6797 33.0303C65.9157 33.0303 64.7637 34.3083 64.7637 36.0723C64.7637 37.8363 65.9157 39.0963 67.6797 39.0963ZM78.2655 31.7883C80.6235 31.7883 82.3155 33.6063 82.3155 36.0723C82.3155 38.5563 80.6235 40.3383 78.2655 40.3383C76.8615 40.3383 75.8175 39.7083 75.1875 38.7003V43.5063H73.8915V31.9143H75.1875V33.4263C75.8175 32.4183 76.8615 31.7883 78.2655 31.7883ZM78.1035 39.0963C79.8675 39.0963 81.0375 37.8363 81.0375 36.0723C81.0375 34.3083 79.8675 33.0303 78.1035 33.0303C76.3395 33.0303 75.1875 34.3083 75.1875 36.0723C75.1875 37.8363 76.3395 39.0963 78.1035 39.0963ZM87.5588 37.6923L88.6748 36.9543C89.0888 38.0523 90.5288 39.0423 92.4728 39.0423C94.4888 39.0423 95.3348 38.2863 95.3348 36.9363C95.3348 35.4063 93.0488 35.0463 91.9868 34.7403C90.8528 34.4343 87.9728 33.9483 87.9728 31.5363C87.9728 29.3403 89.8448 28.2963 92.3468 28.2963C94.5068 28.2963 96.2348 29.3403 96.6668 30.6183L95.5508 31.2843C95.2268 30.4203 93.8948 29.6463 92.2028 29.6463C90.4568 29.6463 89.5028 30.3303 89.5028 31.4823C89.5028 32.9223 91.5908 33.2283 92.7428 33.5343C93.7868 33.8403 96.8288 34.4523 96.8288 36.8823C96.8288 39.1863 95.1548 40.3923 92.3468 40.3923C89.8268 40.3923 88.1168 39.2223 87.5588 37.6923ZM102.635 32.9403H100.655V38.0343C100.655 38.9163 101.195 39.1323 101.807 39.1323H102.545V40.1943H101.339C100.079 40.1943 99.3414 39.4743 99.3414 38.2143V32.9403H98.1894V31.9143H99.3414V29.3943H100.655V31.9143H102.635V32.9403ZM107.963 40.3563C105.479 40.3563 103.751 38.5203 103.751 36.0543C103.751 33.5703 105.479 31.7703 107.963 31.7703C110.447 31.7703 112.175 33.5703 112.175 36.0543C112.175 38.5203 110.447 40.3563 107.963 40.3563ZM107.963 39.0963C109.709 39.0963 110.861 37.8003 110.861 36.0543C110.861 34.3083 109.709 33.0303 107.963 33.0303C106.217 33.0303 105.047 34.3083 105.047 36.0543C105.047 37.8003 106.217 39.0963 107.963 39.0963ZM115.477 33.4443C116.107 32.3103 117.223 31.8063 118.393 31.7883V33.0303C117.115 33.0483 115.477 33.7143 115.477 35.7303V40.1943H114.181V31.9143H115.477V33.4443ZM123.323 31.7703C125.699 31.7703 127.283 33.5883 127.283 36.0543V36.4683H120.497C120.659 38.1243 121.793 39.2223 123.431 39.2223C124.655 39.2223 125.501 38.6643 125.969 37.9623L126.887 38.6283C126.167 39.6903 124.943 40.3563 123.431 40.3563C120.911 40.3563 119.237 38.5203 119.237 36.0543C119.237 33.5883 120.839 31.7703 123.323 31.7703ZM123.323 32.8503C121.703 32.8503 120.677 33.9483 120.497 35.5683H126.077C125.897 34.0023 124.871 32.8503 123.323 32.8503Z" fill="white"/>
<path d="M26.9334 10.9312H11.0293C9.72644 10.9312 8.67065 11.9869 8.67065 13.2898V40.2009C8.67065 41.5038 9.72644 42.5596 11.0293 42.5596H26.9334C28.2363 42.5596 29.2921 41.5038 29.2921 40.2009V13.2898C29.2921 12.0094 28.2138 10.9312 26.9334 10.9312Z" fill="white"/>
<path d="M28.1466 14.7275H9.79395V36.9214H28.1466V14.7275Z" fill="#404040"/>
<path d="M22.7328 12.3462H15.2076C14.9156 12.3462 14.646 12.5933 14.646 12.9078C14.646 13.2223 14.8931 13.4694 15.2076 13.4694H22.7328C23.0249 13.4694 23.2944 13.2223 23.2944 12.9078C23.2944 12.6158 23.0473 12.3462 22.7328 12.3462Z" fill="#6639A6"/>
<path d="M17.1846 39.5944C17.1846 38.606 17.9933 37.7749 18.9816 37.7749C19.97 37.7749 20.8012 38.5836 20.8012 39.5944C20.8012 40.5828 19.9925 41.3915 18.9816 41.3915C17.9933 41.4139 17.1846 40.6053 17.1846 39.5944Z" fill="#6639A6"/>
</svg>
