<svg width="154" height="52" viewBox="0 0 154 52" fill="none" xmlns="http://www.w3.org/2000/svg">
<path d="M153.762 37.8649C153.762 45.3228 147.652 51.4328 140.194 51.4328H13.5679C6.11003 51.4328 0 45.3228 0 37.8649V13.7617C0 6.30384 6.11003 0.193848 13.5679 0.193848H140.194C147.652 0.193848 153.762 6.30384 153.762 13.7617V37.8649Z" fill="#404040"/>
<path d="M54.9269 14.5938H55.6569V19.1938H54.9269V18.3638C54.5769 18.9138 53.9969 19.2738 53.2169 19.2738C51.9069 19.2738 50.9769 18.2638 50.9769 16.8938C50.9769 15.5138 51.9069 14.5238 53.2169 14.5238C53.9969 14.5238 54.5769 14.8738 54.9269 15.4238V14.5938ZM53.3069 18.5838C54.2969 18.5838 54.9269 17.8738 54.9269 16.8938C54.9269 15.9138 54.2969 15.2138 53.3069 15.2138C52.3269 15.2138 51.6769 15.9138 51.6769 16.8938C51.6769 17.8738 52.3269 18.5838 53.3069 18.5838ZM59.1079 14.5238C60.0279 14.5238 60.9379 15.0638 60.9379 16.3638V19.1938H60.2179V16.4638C60.2179 15.5838 59.5979 15.1538 58.9179 15.1538C58.2279 15.1538 57.6279 15.5838 57.6279 16.4638V19.1938H56.9079V14.5938H57.6279V15.2138C57.9779 14.7338 58.5379 14.5238 59.1079 14.5238ZM66.0109 12.6938H66.7409V19.1938H66.0109V18.3638C65.6609 18.9138 65.0809 19.2738 64.3009 19.2738C62.9909 19.2738 62.0609 18.2638 62.0609 16.8938C62.0609 15.5138 62.9909 14.5238 64.3009 14.5238C65.0809 14.5238 65.6609 14.8738 66.0109 15.4238V12.6938ZM64.3909 18.5838C65.3809 18.5838 66.0109 17.8738 66.0109 16.8938C66.0109 15.9138 65.3809 15.2138 64.3909 15.2138C63.4109 15.2138 62.7609 15.9138 62.7609 16.8938C62.7609 17.8738 63.4109 18.5838 64.3909 18.5838ZM68.7119 15.4438C69.0619 14.8138 69.6819 14.5338 70.3319 14.5238V15.2138C69.6219 15.2238 68.7119 15.5938 68.7119 16.7138V19.1938H67.9919V14.5938H68.7119V15.4438ZM73.1411 19.2838C71.7611 19.2838 70.8011 18.2638 70.8011 16.8938C70.8011 15.5138 71.7611 14.5138 73.1411 14.5138C74.5211 14.5138 75.4811 15.5138 75.4811 16.8938C75.4811 18.2638 74.5211 19.2838 73.1411 19.2838ZM73.1411 18.5838C74.1111 18.5838 74.7511 17.8638 74.7511 16.8938C74.7511 15.9238 74.1111 15.2138 73.1411 15.2138C72.1711 15.2138 71.5211 15.9238 71.5211 16.8938C71.5211 17.8638 72.1711 18.5838 73.1411 18.5838ZM77.0354 13.6138C76.8154 13.6138 76.5954 13.4338 76.5954 13.1638C76.5954 12.8938 76.8154 12.7338 77.0354 12.7338C77.2554 12.7338 77.4754 12.8938 77.4754 13.1638C77.4754 13.4338 77.2554 13.6138 77.0354 13.6138ZM77.3954 19.1938H76.6754V14.5938H77.4054L77.3954 19.1938ZM82.5441 12.6938H83.2741V19.1938H82.5441V18.3638C82.1941 18.9138 81.6141 19.2738 80.8341 19.2738C79.5241 19.2738 78.5941 18.2638 78.5941 16.8938C78.5941 15.5138 79.5241 14.5238 80.8341 14.5238C81.6141 14.5238 82.1941 14.8738 82.5441 15.4238V12.6938ZM80.9241 18.5838C81.9141 18.5838 82.5441 17.8738 82.5441 16.8938C82.5441 15.9138 81.9141 15.2138 80.9241 15.2138C79.9441 15.2138 79.2941 15.9138 79.2941 16.8938C79.2941 17.8738 79.9441 18.5838 80.9241 18.5838ZM90.3371 14.5938H91.0671V19.1938H90.3371V18.3638C89.9871 18.9138 89.4071 19.2738 88.6271 19.2738C87.3171 19.2738 86.3871 18.2638 86.3871 16.8938C86.3871 15.5138 87.3171 14.5238 88.6271 14.5238C89.4071 14.5238 89.9871 14.8738 90.3371 15.4238V14.5938ZM88.7171 18.5838C89.7071 18.5838 90.3371 17.8738 90.3371 16.8938C90.3371 15.9138 89.7071 15.2138 88.7171 15.2138C87.7371 15.2138 87.0871 15.9138 87.0871 16.8938C87.0871 17.8738 87.7371 18.5838 88.7171 18.5838ZM94.7481 14.5238C96.0581 14.5238 96.9981 15.5338 96.9981 16.9038C96.9981 18.2838 96.0581 19.2738 94.7481 19.2738C93.9681 19.2738 93.3881 18.9238 93.0381 18.3638V21.0338H92.3181V14.5938H93.0381V15.4338C93.3881 14.8738 93.9681 14.5238 94.7481 14.5238ZM94.6581 18.5838C95.6381 18.5838 96.2881 17.8838 96.2881 16.9038C96.2881 15.9238 95.6381 15.2138 94.6581 15.2138C93.6781 15.2138 93.0381 15.9238 93.0381 16.9038C93.0381 17.8838 93.6781 18.5838 94.6581 18.5838ZM100.539 14.5238C101.849 14.5238 102.789 15.5338 102.789 16.9038C102.789 18.2838 101.849 19.2738 100.539 19.2738C99.7591 19.2738 99.1791 18.9238 98.8291 18.3638V21.0338H98.1091V14.5938H98.8291V15.4338C99.1791 14.8738 99.7591 14.5238 100.539 14.5238ZM100.449 18.5838C101.429 18.5838 102.079 17.8838 102.079 16.9038C102.079 15.9238 101.429 15.2138 100.449 15.2138C99.4691 15.2138 98.8291 15.9238 98.8291 16.9038C98.8291 17.8838 99.4691 18.5838 100.449 18.5838ZM108.102 19.2838C106.722 19.2838 105.762 18.2638 105.762 16.8938C105.762 15.5138 106.722 14.5138 108.102 14.5138C109.482 14.5138 110.442 15.5138 110.442 16.8938C110.442 18.2638 109.482 19.2838 108.102 19.2838ZM108.102 18.5838C109.072 18.5838 109.712 17.8638 109.712 16.8938C109.712 15.9238 109.072 15.2138 108.102 15.2138C107.132 15.2138 106.482 15.9238 106.482 16.8938C106.482 17.8638 107.132 18.5838 108.102 18.5838ZM113.756 14.5238C114.676 14.5238 115.586 15.0638 115.586 16.3638V19.1938H114.866V16.4638C114.866 15.5838 114.246 15.1538 113.566 15.1538C112.876 15.1538 112.276 15.5838 112.276 16.4638V19.1938H111.556V14.5938H112.276V15.2138C112.626 14.7338 113.186 14.5238 113.756 14.5238Z" fill="white"/>
<path d="M60.1248 34.3746C60.0168 37.7046 57.8928 40.0986 54.5088 40.0986C51.0348 40.0986 48.6588 37.5786 48.6588 34.1046C48.6588 30.6306 51.0348 28.1106 54.5088 28.1106C56.5788 28.1106 58.2348 29.0106 59.2428 30.4506L58.1268 31.2426C57.2988 30.0906 56.0028 29.4786 54.5088 29.4786C51.8268 29.4786 50.0088 31.4226 50.0088 34.1046C50.0088 36.7866 51.8268 38.7306 54.5088 38.7306C56.7228 38.7306 58.3608 37.3086 58.5948 35.0586H54.4548V33.7986H60.1248V34.3746ZM66.1757 40.1166C63.6917 40.1166 61.9637 38.2806 61.9637 35.8146C61.9637 33.3306 63.6917 31.5306 66.1757 31.5306C68.6597 31.5306 70.3877 33.3306 70.3877 35.8146C70.3877 38.2806 68.6597 40.1166 66.1757 40.1166ZM66.1757 38.8566C67.9217 38.8566 69.0737 37.5606 69.0737 35.8146C69.0737 34.0686 67.9217 32.7906 66.1757 32.7906C64.4297 32.7906 63.2597 34.0686 63.2597 35.8146C63.2597 37.5606 64.4297 38.8566 66.1757 38.8566ZM76.3535 40.1166C73.8695 40.1166 72.1415 38.2806 72.1415 35.8146C72.1415 33.3306 73.8695 31.5306 76.3535 31.5306C78.8375 31.5306 80.5655 33.3306 80.5655 35.8146C80.5655 38.2806 78.8375 40.1166 76.3535 40.1166ZM76.3535 38.8566C78.0995 38.8566 79.2515 37.5606 79.2515 35.8146C79.2515 34.0686 78.0995 32.7906 76.3535 32.7906C74.6075 32.7906 73.4375 34.0686 73.4375 35.8146C73.4375 37.5606 74.6075 38.8566 76.3535 38.8566ZM89.4292 31.6746H90.7432V39.3426C90.7432 41.7186 89.0512 43.3746 86.3872 43.3746C84.9472 43.3746 83.7232 42.8166 82.9672 41.9166L83.8492 41.1786C84.5152 41.9166 85.4332 42.2406 86.3872 42.2406C87.9172 42.2406 89.4292 41.3226 89.4292 39.3426V38.4606C88.7992 39.4506 87.7552 40.0986 86.3512 40.0986C83.9932 40.0986 82.3192 38.2806 82.3192 35.8146C82.3192 33.3486 83.9932 31.5486 86.3512 31.5486C87.7552 31.5486 88.7992 32.1786 89.4292 33.1686V31.6746ZM86.5132 38.8566C88.2772 38.8566 89.4292 37.5786 89.4292 35.8146C89.4292 34.0506 88.2772 32.7906 86.5132 32.7906C84.7492 32.7906 83.5792 34.0506 83.5792 35.8146C83.5792 37.5786 84.7492 38.8566 86.5132 38.8566ZM94.291 39.9546H92.995V28.2546H94.291V39.9546ZM100.397 31.5306C102.773 31.5306 104.357 33.3486 104.357 35.8146V36.2286H97.5714C97.7334 37.8846 98.8674 38.9826 100.505 38.9826C101.729 38.9826 102.575 38.4246 103.043 37.7226L103.961 38.3886C103.241 39.4506 102.017 40.1166 100.505 40.1166C97.9854 40.1166 96.3114 38.2806 96.3114 35.8146C96.3114 33.3486 97.9134 31.5306 100.397 31.5306ZM100.397 32.6106C98.7774 32.6106 97.7514 33.7086 97.5714 35.3286H103.151C102.971 33.7626 101.945 32.6106 100.397 32.6106ZM115.249 28.2546C117.013 28.2546 118.597 29.6586 118.597 31.8186C118.597 33.9786 117.013 35.3826 115.249 35.3826H111.325V39.9546H109.975V28.2546H115.249ZM115.051 34.0686C116.311 34.0686 117.229 33.0786 117.229 31.8186C117.229 30.5766 116.329 29.5866 115.051 29.5866H111.325V34.0686H115.051ZM121.783 39.9546H120.487V28.2546H121.783V39.9546ZM130.914 31.6746H132.228V39.9546H130.914V38.4606C130.284 39.4506 129.24 40.0986 127.836 40.0986C125.478 40.0986 123.804 38.2806 123.804 35.8146C123.804 33.3306 125.478 31.5486 127.836 31.5486C129.24 31.5486 130.284 32.1786 130.914 33.1686V31.6746ZM127.998 38.8566C129.78 38.8566 130.914 37.5786 130.914 35.8146C130.914 34.0506 129.78 32.7906 127.998 32.7906C126.234 32.7906 125.064 34.0506 125.064 35.8146C125.064 37.5786 126.234 38.8566 127.998 38.8566ZM140.185 31.6746H141.535L136.927 43.2666H135.649L136.945 39.9366L133.705 31.6746H135.055L137.611 38.1546L140.185 31.6746Z" fill="white"/>
<path d="M8.67065 42.3127V9.33643L38.3224 25.3528L8.67065 42.3127Z" fill="#5CA9B3"/>
<path d="M8.67065 9.33643L29.6515 30.3172L38.3224 25.3528L8.67065 9.33643Z" fill="#C8DB9B"/>
<path d="M29.4718 20.5679L8.67065 42.3125L38.3224 25.3526L29.4718 20.5679Z" fill="#AC5067"/>
<path d="M29.6517 30.317L38.3225 25.3526L29.4719 20.5679L24.7996 25.4649L29.6517 30.317Z" fill="#F4A676"/>
</svg>
