<svg width="132" height="24" viewBox="0 0 132 24" fill="none" xmlns="http://www.w3.org/2000/svg">
<path d="M11.9141 16.8835L17.8865 20.4882L16.3015 13.6943L21.5781 9.12325L14.6297 8.53374L11.9141 2.12646L9.19846 8.53374L2.25 9.12325L7.52658 13.6943L5.94167 20.4882L11.9141 16.8835Z" fill="#EDD146"/>
<path d="M38.9734 16.8835L44.9458 20.4882L43.3609 13.6943L48.6375 9.12325L41.689 8.53374L38.9734 2.12646L36.2578 8.53374L29.3093 9.12325L34.5859 13.6943L33.001 20.4882L38.9734 16.8835Z" fill="#EDD146"/>
<path d="M66.0327 16.8835L72.0051 20.4882L70.4202 13.6943L75.6968 9.12325L68.7483 8.53374L66.0327 2.12646L63.3171 8.53374L56.3687 9.12325L61.6452 13.6943L60.0603 20.4882L66.0327 16.8835Z" fill="#EDD146"/>
<path d="M93.0923 16.8835L99.0647 20.4882L97.4798 13.6943L102.756 9.12325L95.8079 8.53374L93.0923 2.12646L90.3767 8.53374L83.4282 9.12325L88.7048 13.6943L87.1199 20.4882L93.0923 16.8835Z" fill="#EDD146"/>
<path d="M129.816 9.12325L122.867 8.52407L120.152 2.12646L117.436 8.53374L110.488 9.12325L115.764 13.6943L114.179 20.4882L120.152 16.8835L126.124 20.4882L124.549 13.6943L129.816 9.12325ZM120.152 15.0763L116.518 17.2701L117.484 13.1338L114.276 10.3506L118.509 9.98335L120.152 6.08873L121.804 9.99301L126.037 10.3602L122.829 13.1435L123.795 17.2797L120.152 15.0763Z" fill="#EDD146"/>
</svg>
