<svg width="132" height="24" viewBox="0 0 132 24" fill="none" xmlns="http://www.w3.org/2000/svg">
<path d="M11.8459 16.8835L17.8183 20.4882L16.2334 13.6943L21.51 9.12325L14.5615 8.53374L11.8459 2.12646L9.13035 8.53374L2.18188 9.12325L7.45846 13.6943L5.87356 20.4882L11.8459 16.8835Z" fill="#EDD146"/>
<path d="M38.9053 16.8835L44.8777 20.4882L43.2928 13.6943L48.5693 9.12325L41.6209 8.53374L38.9053 2.12646L36.1897 8.53374L29.2412 9.12325L34.5178 13.6943L32.9329 20.4882L38.9053 16.8835Z" fill="#EDD146"/>
<path d="M65.9646 16.8835L71.937 20.4882L70.3521 13.6943L75.6287 9.12325L68.6802 8.53374L65.9646 2.12646L63.249 8.53374L56.3005 9.12325L61.5771 13.6943L59.9922 20.4882L65.9646 16.8835Z" fill="#EDD146"/>
<path d="M102.688 9.12325L95.7398 8.52407L93.0242 2.12646L90.3086 8.53374L83.3601 9.12325L88.6367 13.6943L87.0518 20.4882L93.0242 16.8835L98.9966 20.4882L97.4213 13.6943L102.688 9.12325ZM93.0242 15.0763V6.08873L94.6767 9.99301L98.9096 10.3602L95.7011 13.1435L96.6675 17.2797L93.0242 15.0763Z" fill="#EDD146"/>
<path d="M129.748 9.12325L122.799 8.52407L120.083 2.12646L117.368 8.53374L110.419 9.12325L115.696 13.6943L114.111 20.4882L120.083 16.8835L126.056 20.4882L124.481 13.6943L129.748 9.12325ZM120.083 15.0763L116.45 17.2701L117.416 13.1338L114.208 10.3506L118.441 9.98335L120.083 6.08873L121.736 9.99301L125.969 10.3602L122.76 13.1435L123.727 17.2797L120.083 15.0763Z" fill="#EDD146"/>
</svg>
