<svg width="132" height="24" viewBox="0 0 132 24" fill="none" xmlns="http://www.w3.org/2000/svg">
<path d="M11.9817 16.8835L17.9541 20.4882L16.3692 13.6943L21.6458 9.12325L14.6973 8.53374L11.9817 2.12646L9.26609 8.53374L2.31763 9.12325L7.5942 13.6943L6.0093 20.4882L11.9817 16.8835Z" fill="#EDD146"/>
<path d="M39.041 16.8835L45.0134 20.4882L43.4285 13.6943L48.7051 9.12325L41.7566 8.53374L39.041 2.12646L36.3254 8.53374L29.377 9.12325L34.6535 13.6943L33.0686 20.4882L39.041 16.8835Z" fill="#EDD146"/>
<path d="M66.1003 16.8835L72.0727 20.4882L70.4878 13.6943L75.7644 9.12325L68.8159 8.53374L66.1003 2.12646L63.3847 8.53374L56.4363 9.12325L61.7129 13.6943L60.128 20.4882L66.1003 16.8835Z" fill="#EDD146"/>
<path d="M102.824 9.12325L95.8755 8.52407L93.1599 2.12646L90.4443 8.53374L83.4958 9.12325L88.7724 13.6943L87.1875 20.4882L93.1599 16.8835L99.1323 20.4882L97.5571 13.6943L102.824 9.12325ZM93.1599 15.0763V6.08873L94.8125 9.99301L99.0453 10.3602L95.8369 13.1435L96.8033 17.2797L93.1599 15.0763Z" fill="#EDD146"/>
<path d="M129.883 9.12325L122.935 8.52407L120.219 2.12646L117.504 8.53374L110.555 9.12325L115.832 13.6943L114.247 20.4882L120.219 16.8835L126.192 20.4882L124.616 13.6943L129.883 9.12325ZM120.219 15.0763L116.586 17.2701L117.552 13.1338L114.343 10.3506L118.576 9.98335L120.219 6.08873L121.872 9.99301L126.105 10.3602L122.896 13.1435L123.863 17.2797L120.219 15.0763Z" fill="#EDD146"/>
</svg>
